<svg width="600" height="600" viewBox="0 0 600 600" fill="none" xmlns="http://www.w3.org/2000/svg">
<rect width="600" height="600" fill="#1E1E1E"/>
<rect width="600" height="600" fill="#1D1A28"/>
<path d="M57 303H87C89.7614 303 92 305.239 92 308V553H57V303Z" fill="#121212"/>
<path d="M92 518H549C551.761 518 554 520.239 554 523V553H92V518Z" fill="#121212"/>
<path d="M344 346V438" stroke="#909090" stroke-width="5" stroke-linecap="round"/>
<path d="M344 343.5C342.619 343.5 341.5 344.619 341.5 346C341.5 347.381 342.619 348.5 344 348.5V343.5ZM553 348.5H555.5V343.5H553V348.5ZM344 348.5H553V343.5H344V348.5Z" fill="#909090"/>
<path d="M60 297.5H57.5V302.5H60V297.5ZM160 302.5C161.381 302.5 162.5 301.381 162.5 300C162.5 298.619 161.381 297.5 160 297.5V302.5ZM60 302.5H160V297.5H60V302.5Z" fill="#909090"/>
<path d="M405 55H555V228H410C407.239 228 405 225.761 405 223V55Z" fill="#909090"/>
<path d="M57 55H405V133H57V55Z" fill="#909090"/>
<rect x="554" y="55" width="15" height="498" fill="#3A3A3A"/>
<rect x="42" y="55" width="15" height="210" fill="#3A3A3A"/>
<rect x="42" y="297" width="15" height="256" fill="#3A3A3A"/>
<rect x="41.531" y="55.0324" width="15" height="527.47" transform="rotate(-90.0035 41.531 55.0324)" fill="#3A3A3A"/>
<rect x="42.0009" y="568.032" width="15" height="527.47" transform="rotate(-90.0035 42.0009 568.032)" fill="#3A3A3A"/>
<g filter="url(#filter0_d_0_1)">
<rect x="164" y="358" width="35" height="35" rx="5" fill="#303030"/>
</g>
<g filter="url(#filter1_d_0_1)">
<rect x="164" y="417" width="35" height="35" rx="5" fill="#303030"/>
</g>
<g filter="url(#filter2_d_0_1)">
<rect x="375" y="352" width="35" height="70" rx="5" fill="#303030"/>
</g>
<g filter="url(#filter3_d_0_1)">
<rect x="440" y="352" width="35" height="70" rx="5" fill="#303030"/>
</g>
<g filter="url(#filter4_d_0_1)">
<rect x="505" y="352" width="35" height="70" rx="5" fill="#303030"/>
</g>
<g filter="url(#filter5_d_0_1)">
<rect x="57" y="317" width="35" height="35" rx="5" fill="#303030"/>
</g>
<g filter="url(#filter6_d_0_1)">
<rect x="57" y="367" width="35" height="35" rx="5" fill="#303030"/>
</g>
<g filter="url(#filter7_d_0_1)">
<rect x="57" y="417" width="35" height="35" rx="5" fill="#303030"/>
</g>
<g filter="url(#filter8_d_0_1)">
<rect x="57" y="467" width="35" height="35" rx="5" fill="#303030"/>
</g>
<g filter="url(#filter9_d_0_1)">
<rect x="100" y="518" width="35" height="35" rx="5" fill="#303030"/>
</g>
<g filter="url(#filter10_d_0_1)">
<rect x="150" y="518" width="35" height="35" rx="5" fill="#303030"/>
</g>
<g filter="url(#filter11_d_0_1)">
<rect x="200" y="518" width="35" height="35" rx="5" fill="#303030"/>
</g>
<g filter="url(#filter12_d_0_1)">
<rect x="250" y="518" width="35" height="35" rx="5" fill="#303030"/>
</g>
<g filter="url(#filter13_d_0_1)">
<rect x="300" y="518" width="35" height="35" rx="5" fill="#303030"/>
</g>
<g filter="url(#filter14_d_0_1)">
<rect x="350" y="518" width="35" height="35" rx="5" fill="#303030"/>
</g>
<g filter="url(#filter15_d_0_1)">
<rect x="400" y="518" width="35" height="35" rx="5" fill="#303030"/>
</g>
<g filter="url(#filter16_d_0_1)">
<rect x="450" y="518" width="35" height="35" rx="5" fill="#303030"/>
</g>
<g filter="url(#filter17_d_0_1)">
<rect x="500" y="518" width="35" height="35" rx="5" fill="#303030"/>
</g>
<path d="M181.75 380.119C181.108 380.119 180.561 379.945 180.109 379.595C179.658 379.243 179.313 378.733 179.074 378.065C178.835 377.395 178.716 376.585 178.716 375.636C178.716 374.693 178.835 373.888 179.074 373.22C179.315 372.55 179.662 372.038 180.114 371.686C180.568 371.331 181.114 371.153 181.75 371.153C182.386 371.153 182.93 371.331 183.382 371.686C183.837 372.038 184.183 372.55 184.422 373.22C184.663 373.888 184.784 374.693 184.784 375.636C184.784 376.585 184.665 377.395 184.426 378.065C184.188 378.733 183.842 379.243 183.391 379.595C182.939 379.945 182.392 380.119 181.75 380.119ZM181.75 379.182C182.386 379.182 182.881 378.875 183.233 378.261C183.585 377.648 183.761 376.773 183.761 375.636C183.761 374.881 183.68 374.237 183.518 373.706C183.359 373.175 183.129 372.77 182.828 372.491C182.53 372.213 182.17 372.074 181.75 372.074C181.119 372.074 180.626 372.385 180.271 373.007C179.916 373.626 179.739 374.503 179.739 375.636C179.739 376.392 179.818 377.034 179.977 377.562C180.136 378.091 180.365 378.493 180.663 378.768C180.964 379.044 181.327 379.182 181.75 379.182Z" fill="white"/>
<path d="M182.972 429.273V438H181.915V430.381H181.864L179.733 431.795V430.722L181.915 429.273H182.972Z" fill="white"/>
<path d="M389.903 390V389.233L392.784 386.08C393.122 385.71 393.401 385.389 393.619 385.116C393.838 384.841 394 384.582 394.105 384.341C394.213 384.097 394.267 383.841 394.267 383.574C394.267 383.267 394.193 383.001 394.045 382.777C393.901 382.553 393.702 382.379 393.449 382.257C393.196 382.135 392.912 382.074 392.597 382.074C392.261 382.074 391.969 382.143 391.719 382.283C391.472 382.419 391.28 382.611 391.143 382.858C391.01 383.105 390.943 383.395 390.943 383.727H389.938C389.938 383.216 390.055 382.767 390.291 382.381C390.527 381.994 390.848 381.693 391.254 381.477C391.663 381.261 392.122 381.153 392.631 381.153C393.142 381.153 393.595 381.261 393.99 381.477C394.385 381.693 394.695 381.984 394.919 382.351C395.143 382.717 395.256 383.125 395.256 383.574C395.256 383.895 395.197 384.209 395.081 384.516C394.967 384.82 394.768 385.159 394.484 385.534C394.203 385.906 393.812 386.361 393.312 386.898L391.352 388.994V389.062H395.409V390H389.903Z" fill="white"/>
<path d="M457.852 390.119C457.29 390.119 456.788 390.023 456.348 389.83C455.911 389.636 455.563 389.368 455.304 389.024C455.048 388.678 454.909 388.276 454.886 387.818H455.96C455.983 388.099 456.08 388.342 456.25 388.547C456.42 388.749 456.643 388.905 456.919 389.016C457.195 389.126 457.5 389.182 457.835 389.182C458.21 389.182 458.543 389.116 458.832 388.986C459.122 388.855 459.349 388.673 459.514 388.44C459.679 388.207 459.761 387.938 459.761 387.631C459.761 387.31 459.682 387.027 459.523 386.783C459.364 386.536 459.131 386.342 458.824 386.203C458.517 386.064 458.142 385.994 457.699 385.994H457V385.057H457.699C458.045 385.057 458.349 384.994 458.611 384.869C458.875 384.744 459.081 384.568 459.229 384.341C459.379 384.114 459.455 383.847 459.455 383.54C459.455 383.244 459.389 382.987 459.259 382.768C459.128 382.55 458.943 382.379 458.705 382.257C458.469 382.135 458.19 382.074 457.869 382.074C457.568 382.074 457.284 382.129 457.017 382.24C456.753 382.348 456.537 382.506 456.369 382.713C456.202 382.918 456.111 383.165 456.097 383.455H455.074C455.091 382.997 455.229 382.597 455.487 382.253C455.746 381.906 456.084 381.636 456.501 381.443C456.922 381.25 457.384 381.153 457.886 381.153C458.426 381.153 458.889 381.263 459.276 381.482C459.662 381.697 459.959 381.983 460.166 382.338C460.374 382.693 460.477 383.077 460.477 383.489C460.477 383.98 460.348 384.399 460.089 384.746C459.834 385.092 459.486 385.332 459.045 385.466V385.534C459.597 385.625 460.027 385.859 460.337 386.237C460.646 386.612 460.801 387.077 460.801 387.631C460.801 388.105 460.672 388.531 460.413 388.909C460.158 389.284 459.808 389.58 459.365 389.795C458.922 390.011 458.418 390.119 457.852 390.119Z" fill="white"/>
<path d="M519.699 388.21V387.341L523.534 381.273H524.165V382.619H523.739L520.841 387.205V387.273H526.006V388.21H519.699ZM523.807 390V387.946V387.541V381.273H524.812V390H523.807Z" fill="white"/>
<path d="M74.6307 339.119C74.1307 339.119 73.6804 339.02 73.2798 338.821C72.8793 338.622 72.5582 338.349 72.3168 338.003C72.0753 337.656 71.9432 337.261 71.9205 336.818H72.9432C72.983 337.213 73.1619 337.54 73.4801 337.798C73.8011 338.054 74.1847 338.182 74.6307 338.182C74.9886 338.182 75.3068 338.098 75.5852 337.93C75.8665 337.763 76.0866 337.533 76.2457 337.24C76.4077 336.945 76.4886 336.611 76.4886 336.239C76.4886 335.858 76.4048 335.518 76.2372 335.22C76.0724 334.919 75.8452 334.682 75.5554 334.509C75.2656 334.335 74.9347 334.247 74.5625 334.244C74.2955 334.241 74.0213 334.283 73.7401 334.368C73.4588 334.45 73.2273 334.557 73.0455 334.688L72.0568 334.568L72.5852 330.273H77.1193V331.21H73.4716L73.1648 333.784H73.2159C73.3949 333.642 73.6193 333.524 73.8892 333.43C74.1591 333.337 74.4403 333.29 74.733 333.29C75.267 333.29 75.7429 333.418 76.1605 333.673C76.581 333.926 76.9105 334.273 77.1491 334.713C77.3906 335.153 77.5114 335.656 77.5114 336.222C77.5114 336.778 77.3864 337.276 77.1364 337.713C76.8892 338.148 76.5483 338.491 76.1136 338.744C75.679 338.994 75.1847 339.119 74.6307 339.119Z" fill="white"/>
<path d="M74.8011 389.119C74.4432 389.114 74.0852 389.045 73.7273 388.915C73.3693 388.784 73.0426 388.564 72.7472 388.254C72.4517 387.942 72.2145 387.52 72.0355 386.989C71.8565 386.455 71.767 385.784 71.767 384.977C71.767 384.205 71.8395 383.52 71.9844 382.923C72.1293 382.324 72.3395 381.82 72.6151 381.411C72.8906 380.999 73.223 380.686 73.6122 380.473C74.0043 380.26 74.446 380.153 74.9375 380.153C75.4261 380.153 75.8608 380.251 76.2415 380.447C76.625 380.641 76.9375 380.911 77.179 381.257C77.4205 381.604 77.5767 382.003 77.6477 382.455H76.608C76.5114 382.062 76.3239 381.737 76.0455 381.479C75.767 381.22 75.3977 381.091 74.9375 381.091C74.2614 381.091 73.7287 381.385 73.3395 381.973C72.9531 382.561 72.7585 383.386 72.7557 384.449H72.8239C72.983 384.207 73.1719 384.001 73.3906 383.831C73.6122 383.658 73.8565 383.524 74.1236 383.43C74.3906 383.337 74.6733 383.29 74.9716 383.29C75.4716 383.29 75.929 383.415 76.3438 383.665C76.7585 383.912 77.0909 384.254 77.3409 384.692C77.5909 385.126 77.7159 385.625 77.7159 386.188C77.7159 386.727 77.5952 387.222 77.3537 387.67C77.1122 388.116 76.7727 388.472 76.3352 388.736C75.9006 388.997 75.3892 389.125 74.8011 389.119ZM74.8011 388.182C75.1591 388.182 75.4801 388.092 75.7642 387.913C76.0511 387.734 76.277 387.494 76.4418 387.193C76.6094 386.892 76.6932 386.557 76.6932 386.188C76.6932 385.827 76.6122 385.499 76.4503 385.203C76.2912 384.905 76.071 384.668 75.7898 384.491C75.5114 384.315 75.1932 384.227 74.8352 384.227C74.5653 384.227 74.3139 384.281 74.081 384.389C73.848 384.494 73.6435 384.639 73.4673 384.824C73.294 385.009 73.1577 385.22 73.0582 385.459C72.9588 385.695 72.9091 385.943 72.9091 386.205C72.9091 386.551 72.9901 386.875 73.152 387.176C73.3168 387.477 73.5412 387.72 73.8253 387.905C74.1122 388.089 74.4375 388.182 74.8011 388.182Z" fill="white"/>
<path d="M72.1761 438L76.0795 430.278V430.21H71.5795V429.273H77.1705V430.261L73.2841 438H72.1761Z" fill="white"/>
<path d="M73.6989 488.119C73.1136 488.119 72.5966 488.016 72.1477 487.808C71.7017 487.598 71.3537 487.31 71.1037 486.943C70.8537 486.574 70.7301 486.153 70.733 485.682C70.7301 485.312 70.8026 484.972 70.9503 484.659C71.098 484.344 71.2997 484.081 71.5554 483.871C71.8139 483.658 72.1023 483.523 72.4205 483.466V483.415C72.0028 483.307 71.6705 483.072 71.4233 482.712C71.1761 482.348 71.054 481.935 71.0568 481.472C71.054 481.028 71.1662 480.632 71.3935 480.283C71.6207 479.933 71.9332 479.658 72.331 479.456C72.7315 479.254 73.1875 479.153 73.6989 479.153C74.2045 479.153 74.6563 479.254 75.054 479.456C75.4517 479.658 75.7642 479.933 75.9915 480.283C76.2216 480.632 76.3381 481.028 76.3409 481.472C76.3381 481.935 76.2116 482.348 75.9616 482.712C75.7145 483.072 75.3864 483.307 74.9773 483.415V483.466C75.2926 483.523 75.5767 483.658 75.8295 483.871C76.0824 484.081 76.2841 484.344 76.4347 484.659C76.5852 484.972 76.6619 485.312 76.6648 485.682C76.6619 486.153 76.5341 486.574 76.2812 486.943C76.0312 487.31 75.6832 487.598 75.2372 487.808C74.794 488.016 74.2813 488.119 73.6989 488.119ZM73.6989 487.182C74.0938 487.182 74.4347 487.118 74.7216 486.99C75.0085 486.862 75.2301 486.682 75.3864 486.449C75.5426 486.216 75.6222 485.943 75.625 485.631C75.6222 485.301 75.5369 485.01 75.3693 484.757C75.2017 484.504 74.973 484.305 74.6832 484.161C74.3963 484.016 74.0682 483.943 73.6989 483.943C73.3267 483.943 72.9943 484.016 72.7017 484.161C72.4119 484.305 72.1832 484.504 72.0156 484.757C71.8509 485.01 71.7699 485.301 71.7727 485.631C71.7699 485.943 71.8452 486.216 71.9986 486.449C72.1548 486.682 72.3778 486.862 72.6676 486.99C72.9574 487.118 73.3011 487.182 73.6989 487.182ZM73.6989 483.04C74.0114 483.04 74.2884 482.977 74.5298 482.852C74.7741 482.727 74.9659 482.553 75.1051 482.328C75.2443 482.104 75.3153 481.841 75.3182 481.54C75.3153 481.244 75.2457 480.987 75.1094 480.768C74.973 480.547 74.7841 480.376 74.5426 480.257C74.3011 480.135 74.0199 480.074 73.6989 480.074C73.3722 480.074 73.0866 480.135 72.8423 480.257C72.598 480.376 72.4091 480.547 72.2756 480.768C72.142 480.987 72.0767 481.244 72.0795 481.54C72.0767 481.841 72.1435 482.104 72.2798 482.328C72.419 482.553 72.6108 482.727 72.8551 482.852C73.0994 482.977 73.3807 483.04 73.6989 483.04Z" fill="white"/>
<path d="M118.682 531.153C119.04 531.156 119.398 531.224 119.756 531.358C120.114 531.491 120.44 531.713 120.736 532.023C121.031 532.33 121.268 532.749 121.447 533.28C121.626 533.811 121.716 534.477 121.716 535.278C121.716 536.054 121.642 536.743 121.494 537.345C121.349 537.945 121.139 538.45 120.864 538.862C120.591 539.274 120.259 539.587 119.866 539.8C119.477 540.013 119.037 540.119 118.545 540.119C118.057 540.119 117.621 540.023 117.237 539.83C116.857 539.634 116.544 539.362 116.3 539.016C116.058 538.666 115.903 538.261 115.835 537.801H116.875C116.969 538.202 117.155 538.533 117.433 538.794C117.714 539.053 118.085 539.182 118.545 539.182C119.219 539.182 119.75 538.888 120.139 538.3C120.531 537.712 120.727 536.881 120.727 535.807H120.659C120.5 536.045 120.311 536.251 120.092 536.425C119.874 536.598 119.631 536.732 119.364 536.825C119.097 536.919 118.813 536.966 118.511 536.966C118.011 536.966 117.553 536.842 117.135 536.595C116.72 536.345 116.388 536.003 116.138 535.568C115.891 535.131 115.767 534.631 115.767 534.068C115.767 533.534 115.886 533.045 116.125 532.602C116.366 532.156 116.705 531.801 117.139 531.537C117.577 531.273 118.091 531.145 118.682 531.153ZM118.682 532.091C118.324 532.091 118.001 532.18 117.714 532.359C117.43 532.536 117.205 532.774 117.037 533.075C116.872 533.374 116.79 533.705 116.79 534.068C116.79 534.432 116.869 534.763 117.028 535.061C117.19 535.357 117.411 535.592 117.689 535.768C117.97 535.942 118.29 536.028 118.648 536.028C118.918 536.028 119.169 535.976 119.402 535.871C119.635 535.763 119.838 535.616 120.011 535.432C120.188 535.244 120.325 535.033 120.425 534.797C120.524 534.558 120.574 534.31 120.574 534.051C120.574 533.71 120.491 533.391 120.327 533.092C120.165 532.794 119.94 532.553 119.653 532.368C119.369 532.183 119.045 532.091 118.682 532.091Z" fill="white"/>
<path d="M163.972 531.273V540H162.915V532.381H162.864L160.733 533.795V532.722L162.915 531.273H163.972ZM169.328 540.119C168.686 540.119 168.139 539.945 167.688 539.595C167.236 539.243 166.891 538.733 166.652 538.065C166.413 537.395 166.294 536.585 166.294 535.636C166.294 534.693 166.413 533.888 166.652 533.22C166.893 532.55 167.24 532.038 167.692 531.686C168.146 531.331 168.692 531.153 169.328 531.153C169.964 531.153 170.509 531.331 170.96 531.686C171.415 532.038 171.761 532.55 172 533.22C172.241 533.888 172.362 534.693 172.362 535.636C172.362 536.585 172.243 537.395 172.004 538.065C171.766 538.733 171.42 539.243 170.969 539.595C170.517 539.945 169.97 540.119 169.328 540.119ZM169.328 539.182C169.964 539.182 170.459 538.875 170.811 538.261C171.163 537.648 171.339 536.773 171.339 535.636C171.339 534.881 171.259 534.237 171.097 533.706C170.938 533.175 170.707 532.77 170.406 532.491C170.108 532.213 169.749 532.074 169.328 532.074C168.697 532.074 168.205 532.385 167.849 533.007C167.494 533.626 167.317 534.503 167.317 535.636C167.317 536.392 167.396 537.034 167.555 537.562C167.714 538.091 167.943 538.493 168.241 538.768C168.543 539.044 168.905 539.182 169.328 539.182Z" fill="white"/>
<path d="M214.972 531.273V540H213.915V532.381H213.864L211.733 533.795V532.722L213.915 531.273H214.972ZM220.55 531.273V540H219.493V532.381H219.442L217.311 533.795V532.722L219.493 531.273H220.55Z" fill="white"/>
<path d="M264.972 531.273V540H263.915V532.381H263.864L261.733 533.795V532.722L263.915 531.273H264.972ZM267.482 540V539.233L270.362 536.08C270.7 535.71 270.979 535.389 271.197 535.116C271.416 534.841 271.578 534.582 271.683 534.341C271.791 534.097 271.845 533.841 271.845 533.574C271.845 533.267 271.771 533.001 271.624 532.777C271.479 532.553 271.28 532.379 271.027 532.257C270.774 532.135 270.49 532.074 270.175 532.074C269.839 532.074 269.547 532.143 269.297 532.283C269.05 532.419 268.858 532.611 268.722 532.858C268.588 533.105 268.521 533.395 268.521 533.727H267.516C267.516 533.216 267.634 532.767 267.869 532.381C268.105 531.994 268.426 531.693 268.832 531.477C269.241 531.261 269.7 531.153 270.209 531.153C270.72 531.153 271.173 531.261 271.568 531.477C271.963 531.693 272.273 531.984 272.497 532.351C272.722 532.717 272.834 533.125 272.834 533.574C272.834 533.895 272.776 534.209 272.659 534.516C272.545 534.82 272.347 535.159 272.062 535.534C271.781 535.906 271.391 536.361 270.891 536.898L268.93 538.994V539.062H272.987V540H267.482Z" fill="white"/>
<path d="M313.972 531.273V540H312.915V532.381H312.864L310.733 533.795V532.722L312.915 531.273H313.972ZM319.43 540.119C318.868 540.119 318.366 540.023 317.926 539.83C317.489 539.636 317.141 539.368 316.882 539.024C316.626 538.678 316.487 538.276 316.464 537.818H317.538C317.561 538.099 317.658 538.342 317.828 538.547C317.999 538.749 318.222 538.905 318.497 539.016C318.773 539.126 319.078 539.182 319.413 539.182C319.788 539.182 320.121 539.116 320.411 538.986C320.7 538.855 320.928 538.673 321.092 538.44C321.257 538.207 321.339 537.938 321.339 537.631C321.339 537.31 321.26 537.027 321.101 536.783C320.942 536.536 320.709 536.342 320.402 536.203C320.095 536.064 319.72 535.994 319.277 535.994H318.578V535.057H319.277C319.624 535.057 319.928 534.994 320.189 534.869C320.453 534.744 320.659 534.568 320.807 534.341C320.957 534.114 321.033 533.847 321.033 533.54C321.033 533.244 320.967 532.987 320.837 532.768C320.706 532.55 320.521 532.379 320.283 532.257C320.047 532.135 319.768 532.074 319.447 532.074C319.146 532.074 318.862 532.129 318.595 532.24C318.331 532.348 318.115 532.506 317.947 532.713C317.78 532.918 317.689 533.165 317.675 533.455H316.652C316.669 532.997 316.807 532.597 317.065 532.253C317.324 531.906 317.662 531.636 318.08 531.443C318.5 531.25 318.962 531.153 319.464 531.153C320.004 531.153 320.467 531.263 320.854 531.482C321.24 531.697 321.537 531.983 321.744 532.338C321.952 532.693 322.055 533.077 322.055 533.489C322.055 533.98 321.926 534.399 321.668 534.746C321.412 535.092 321.064 535.332 320.624 535.466V535.534C321.175 535.625 321.605 535.859 321.915 536.237C322.224 536.612 322.379 537.077 322.379 537.631C322.379 538.105 322.25 538.531 321.991 538.909C321.736 539.284 321.386 539.58 320.943 539.795C320.5 540.011 319.996 540.119 319.43 540.119Z" fill="white"/>
<path d="M363.972 531.273V540H362.915V532.381H362.864L360.733 533.795V532.722L362.915 531.273H363.972ZM366.277 538.21V537.341L370.112 531.273H370.743V532.619H370.317L367.419 537.205V537.273H372.584V538.21H366.277ZM370.385 540V537.946V537.541V531.273H371.391V540H370.385Z" fill="white"/>
<path d="M414.972 531.273V540H413.915V532.381H413.864L411.733 533.795V532.722L413.915 531.273H414.972ZM420.209 540.119C419.709 540.119 419.259 540.02 418.858 539.821C418.457 539.622 418.136 539.349 417.895 539.003C417.653 538.656 417.521 538.261 417.499 537.818H418.521C418.561 538.213 418.74 538.54 419.058 538.798C419.379 539.054 419.763 539.182 420.209 539.182C420.567 539.182 420.885 539.098 421.163 538.93C421.445 538.763 421.665 538.533 421.824 538.24C421.986 537.945 422.067 537.611 422.067 537.239C422.067 536.858 421.983 536.518 421.815 536.22C421.651 535.919 421.423 535.682 421.134 535.509C420.844 535.335 420.513 535.247 420.141 535.244C419.874 535.241 419.599 535.283 419.318 535.368C419.037 535.45 418.805 535.557 418.624 535.688L417.635 535.568L418.163 531.273H422.697V532.21H419.05L418.743 534.784H418.794C418.973 534.642 419.197 534.524 419.467 534.43C419.737 534.337 420.018 534.29 420.311 534.29C420.845 534.29 421.321 534.418 421.739 534.673C422.159 534.926 422.489 535.273 422.727 535.713C422.969 536.153 423.089 536.656 423.089 537.222C423.089 537.778 422.964 538.276 422.714 538.713C422.467 539.148 422.126 539.491 421.692 539.744C421.257 539.994 420.763 540.119 420.209 540.119Z" fill="white"/>
<path d="M465.972 531.273V540H464.915V532.381H464.864L462.733 533.795V532.722L464.915 531.273H465.972ZM471.379 540.119C471.021 540.114 470.663 540.045 470.305 539.915C469.947 539.784 469.621 539.564 469.325 539.254C469.03 538.942 468.793 538.52 468.614 537.989C468.435 537.455 468.345 536.784 468.345 535.977C468.345 535.205 468.418 534.52 468.562 533.923C468.707 533.324 468.918 532.82 469.193 532.411C469.469 531.999 469.801 531.686 470.19 531.473C470.582 531.26 471.024 531.153 471.516 531.153C472.004 531.153 472.439 531.251 472.82 531.447C473.203 531.641 473.516 531.911 473.757 532.257C473.999 532.604 474.155 533.003 474.226 533.455H473.186C473.089 533.062 472.902 532.737 472.624 532.479C472.345 532.22 471.976 532.091 471.516 532.091C470.839 532.091 470.307 532.385 469.918 532.973C469.531 533.561 469.337 534.386 469.334 535.449H469.402C469.561 535.207 469.75 535.001 469.969 534.831C470.19 534.658 470.435 534.524 470.702 534.43C470.969 534.337 471.251 534.29 471.55 534.29C472.05 534.29 472.507 534.415 472.922 534.665C473.337 534.912 473.669 535.254 473.919 535.692C474.169 536.126 474.294 536.625 474.294 537.188C474.294 537.727 474.173 538.222 473.932 538.67C473.69 539.116 473.351 539.472 472.913 539.736C472.479 539.997 471.967 540.125 471.379 540.119ZM471.379 539.182C471.737 539.182 472.058 539.092 472.342 538.913C472.629 538.734 472.855 538.494 473.02 538.193C473.188 537.892 473.271 537.557 473.271 537.188C473.271 536.827 473.19 536.499 473.028 536.203C472.869 535.905 472.649 535.668 472.368 535.491C472.089 535.315 471.771 535.227 471.413 535.227C471.143 535.227 470.892 535.281 470.659 535.389C470.426 535.494 470.222 535.639 470.045 535.824C469.872 536.009 469.736 536.22 469.636 536.459C469.537 536.695 469.487 536.943 469.487 537.205C469.487 537.551 469.568 537.875 469.73 538.176C469.895 538.477 470.119 538.72 470.403 538.905C470.69 539.089 471.016 539.182 471.379 539.182Z" fill="white"/>
<path d="M515.972 531.273V540H514.915V532.381H514.864L512.733 533.795V532.722L514.915 531.273H515.972ZM518.754 540L522.658 532.278V532.21H518.158V531.273H523.749V532.261L519.862 540H518.754Z" fill="white"/>
<defs>
<filter id="filter0_d_0_1" x="160" y="358" width="43" height="43" filterUnits="userSpaceOnUse" color-interpolation-filters="sRGB">
<feFlood flood-opacity="0" result="BackgroundImageFix"/>
<feColorMatrix in="SourceAlpha" type="matrix" values="0 0 0 0 0 0 0 0 0 0 0 0 0 0 0 0 0 0 127 0" result="hardAlpha"/>
<feOffset dy="4"/>
<feGaussianBlur stdDeviation="2"/>
<feComposite in2="hardAlpha" operator="out"/>
<feColorMatrix type="matrix" values="0 0 0 0 0 0 0 0 0 0 0 0 0 0 0 0 0 0 0.25 0"/>
<feBlend mode="normal" in2="BackgroundImageFix" result="effect1_dropShadow_0_1"/>
<feBlend mode="normal" in="SourceGraphic" in2="effect1_dropShadow_0_1" result="shape"/>
</filter>
<filter id="filter1_d_0_1" x="160" y="417" width="43" height="43" filterUnits="userSpaceOnUse" color-interpolation-filters="sRGB">
<feFlood flood-opacity="0" result="BackgroundImageFix"/>
<feColorMatrix in="SourceAlpha" type="matrix" values="0 0 0 0 0 0 0 0 0 0 0 0 0 0 0 0 0 0 127 0" result="hardAlpha"/>
<feOffset dy="4"/>
<feGaussianBlur stdDeviation="2"/>
<feComposite in2="hardAlpha" operator="out"/>
<feColorMatrix type="matrix" values="0 0 0 0 0 0 0 0 0 0 0 0 0 0 0 0 0 0 0.25 0"/>
<feBlend mode="normal" in2="BackgroundImageFix" result="effect1_dropShadow_0_1"/>
<feBlend mode="normal" in="SourceGraphic" in2="effect1_dropShadow_0_1" result="shape"/>
</filter>
<filter id="filter2_d_0_1" x="371" y="352" width="43" height="78" filterUnits="userSpaceOnUse" color-interpolation-filters="sRGB">
<feFlood flood-opacity="0" result="BackgroundImageFix"/>
<feColorMatrix in="SourceAlpha" type="matrix" values="0 0 0 0 0 0 0 0 0 0 0 0 0 0 0 0 0 0 127 0" result="hardAlpha"/>
<feOffset dy="4"/>
<feGaussianBlur stdDeviation="2"/>
<feComposite in2="hardAlpha" operator="out"/>
<feColorMatrix type="matrix" values="0 0 0 0 0 0 0 0 0 0 0 0 0 0 0 0 0 0 0.25 0"/>
<feBlend mode="normal" in2="BackgroundImageFix" result="effect1_dropShadow_0_1"/>
<feBlend mode="normal" in="SourceGraphic" in2="effect1_dropShadow_0_1" result="shape"/>
</filter>
<filter id="filter3_d_0_1" x="436" y="352" width="43" height="78" filterUnits="userSpaceOnUse" color-interpolation-filters="sRGB">
<feFlood flood-opacity="0" result="BackgroundImageFix"/>
<feColorMatrix in="SourceAlpha" type="matrix" values="0 0 0 0 0 0 0 0 0 0 0 0 0 0 0 0 0 0 127 0" result="hardAlpha"/>
<feOffset dy="4"/>
<feGaussianBlur stdDeviation="2"/>
<feComposite in2="hardAlpha" operator="out"/>
<feColorMatrix type="matrix" values="0 0 0 0 0 0 0 0 0 0 0 0 0 0 0 0 0 0 0.25 0"/>
<feBlend mode="normal" in2="BackgroundImageFix" result="effect1_dropShadow_0_1"/>
<feBlend mode="normal" in="SourceGraphic" in2="effect1_dropShadow_0_1" result="shape"/>
</filter>
<filter id="filter4_d_0_1" x="501" y="352" width="43" height="78" filterUnits="userSpaceOnUse" color-interpolation-filters="sRGB">
<feFlood flood-opacity="0" result="BackgroundImageFix"/>
<feColorMatrix in="SourceAlpha" type="matrix" values="0 0 0 0 0 0 0 0 0 0 0 0 0 0 0 0 0 0 127 0" result="hardAlpha"/>
<feOffset dy="4"/>
<feGaussianBlur stdDeviation="2"/>
<feComposite in2="hardAlpha" operator="out"/>
<feColorMatrix type="matrix" values="0 0 0 0 0 0 0 0 0 0 0 0 0 0 0 0 0 0 0.25 0"/>
<feBlend mode="normal" in2="BackgroundImageFix" result="effect1_dropShadow_0_1"/>
<feBlend mode="normal" in="SourceGraphic" in2="effect1_dropShadow_0_1" result="shape"/>
</filter>
<filter id="filter5_d_0_1" x="56" y="313" width="43" height="43" filterUnits="userSpaceOnUse" color-interpolation-filters="sRGB">
<feFlood flood-opacity="0" result="BackgroundImageFix"/>
<feColorMatrix in="SourceAlpha" type="matrix" values="0 0 0 0 0 0 0 0 0 0 0 0 0 0 0 0 0 0 127 0" result="hardAlpha"/>
<feOffset dx="3"/>
<feGaussianBlur stdDeviation="2"/>
<feComposite in2="hardAlpha" operator="out"/>
<feColorMatrix type="matrix" values="0 0 0 0 0 0 0 0 0 0 0 0 0 0 0 0 0 0 0.25 0"/>
<feBlend mode="normal" in2="BackgroundImageFix" result="effect1_dropShadow_0_1"/>
<feBlend mode="normal" in="SourceGraphic" in2="effect1_dropShadow_0_1" result="shape"/>
</filter>
<filter id="filter6_d_0_1" x="56" y="363" width="43" height="43" filterUnits="userSpaceOnUse" color-interpolation-filters="sRGB">
<feFlood flood-opacity="0" result="BackgroundImageFix"/>
<feColorMatrix in="SourceAlpha" type="matrix" values="0 0 0 0 0 0 0 0 0 0 0 0 0 0 0 0 0 0 127 0" result="hardAlpha"/>
<feOffset dx="3"/>
<feGaussianBlur stdDeviation="2"/>
<feComposite in2="hardAlpha" operator="out"/>
<feColorMatrix type="matrix" values="0 0 0 0 0 0 0 0 0 0 0 0 0 0 0 0 0 0 0.25 0"/>
<feBlend mode="normal" in2="BackgroundImageFix" result="effect1_dropShadow_0_1"/>
<feBlend mode="normal" in="SourceGraphic" in2="effect1_dropShadow_0_1" result="shape"/>
</filter>
<filter id="filter7_d_0_1" x="56" y="413" width="43" height="43" filterUnits="userSpaceOnUse" color-interpolation-filters="sRGB">
<feFlood flood-opacity="0" result="BackgroundImageFix"/>
<feColorMatrix in="SourceAlpha" type="matrix" values="0 0 0 0 0 0 0 0 0 0 0 0 0 0 0 0 0 0 127 0" result="hardAlpha"/>
<feOffset dx="3"/>
<feGaussianBlur stdDeviation="2"/>
<feComposite in2="hardAlpha" operator="out"/>
<feColorMatrix type="matrix" values="0 0 0 0 0 0 0 0 0 0 0 0 0 0 0 0 0 0 0.25 0"/>
<feBlend mode="normal" in2="BackgroundImageFix" result="effect1_dropShadow_0_1"/>
<feBlend mode="normal" in="SourceGraphic" in2="effect1_dropShadow_0_1" result="shape"/>
</filter>
<filter id="filter8_d_0_1" x="56" y="463" width="43" height="43" filterUnits="userSpaceOnUse" color-interpolation-filters="sRGB">
<feFlood flood-opacity="0" result="BackgroundImageFix"/>
<feColorMatrix in="SourceAlpha" type="matrix" values="0 0 0 0 0 0 0 0 0 0 0 0 0 0 0 0 0 0 127 0" result="hardAlpha"/>
<feOffset dx="3"/>
<feGaussianBlur stdDeviation="2"/>
<feComposite in2="hardAlpha" operator="out"/>
<feColorMatrix type="matrix" values="0 0 0 0 0 0 0 0 0 0 0 0 0 0 0 0 0 0 0.25 0"/>
<feBlend mode="normal" in2="BackgroundImageFix" result="effect1_dropShadow_0_1"/>
<feBlend mode="normal" in="SourceGraphic" in2="effect1_dropShadow_0_1" result="shape"/>
</filter>
<filter id="filter9_d_0_1" x="96" y="511" width="43" height="43" filterUnits="userSpaceOnUse" color-interpolation-filters="sRGB">
<feFlood flood-opacity="0" result="BackgroundImageFix"/>
<feColorMatrix in="SourceAlpha" type="matrix" values="0 0 0 0 0 0 0 0 0 0 0 0 0 0 0 0 0 0 127 0" result="hardAlpha"/>
<feOffset dy="-3"/>
<feGaussianBlur stdDeviation="2"/>
<feComposite in2="hardAlpha" operator="out"/>
<feColorMatrix type="matrix" values="0 0 0 0 0 0 0 0 0 0 0 0 0 0 0 0 0 0 0.25 0"/>
<feBlend mode="normal" in2="BackgroundImageFix" result="effect1_dropShadow_0_1"/>
<feBlend mode="normal" in="SourceGraphic" in2="effect1_dropShadow_0_1" result="shape"/>
</filter>
<filter id="filter10_d_0_1" x="146" y="511" width="43" height="43" filterUnits="userSpaceOnUse" color-interpolation-filters="sRGB">
<feFlood flood-opacity="0" result="BackgroundImageFix"/>
<feColorMatrix in="SourceAlpha" type="matrix" values="0 0 0 0 0 0 0 0 0 0 0 0 0 0 0 0 0 0 127 0" result="hardAlpha"/>
<feOffset dy="-3"/>
<feGaussianBlur stdDeviation="2"/>
<feComposite in2="hardAlpha" operator="out"/>
<feColorMatrix type="matrix" values="0 0 0 0 0 0 0 0 0 0 0 0 0 0 0 0 0 0 0.25 0"/>
<feBlend mode="normal" in2="BackgroundImageFix" result="effect1_dropShadow_0_1"/>
<feBlend mode="normal" in="SourceGraphic" in2="effect1_dropShadow_0_1" result="shape"/>
</filter>
<filter id="filter11_d_0_1" x="196" y="511" width="43" height="43" filterUnits="userSpaceOnUse" color-interpolation-filters="sRGB">
<feFlood flood-opacity="0" result="BackgroundImageFix"/>
<feColorMatrix in="SourceAlpha" type="matrix" values="0 0 0 0 0 0 0 0 0 0 0 0 0 0 0 0 0 0 127 0" result="hardAlpha"/>
<feOffset dy="-3"/>
<feGaussianBlur stdDeviation="2"/>
<feComposite in2="hardAlpha" operator="out"/>
<feColorMatrix type="matrix" values="0 0 0 0 0 0 0 0 0 0 0 0 0 0 0 0 0 0 0.25 0"/>
<feBlend mode="normal" in2="BackgroundImageFix" result="effect1_dropShadow_0_1"/>
<feBlend mode="normal" in="SourceGraphic" in2="effect1_dropShadow_0_1" result="shape"/>
</filter>
<filter id="filter12_d_0_1" x="246" y="511" width="43" height="43" filterUnits="userSpaceOnUse" color-interpolation-filters="sRGB">
<feFlood flood-opacity="0" result="BackgroundImageFix"/>
<feColorMatrix in="SourceAlpha" type="matrix" values="0 0 0 0 0 0 0 0 0 0 0 0 0 0 0 0 0 0 127 0" result="hardAlpha"/>
<feOffset dy="-3"/>
<feGaussianBlur stdDeviation="2"/>
<feComposite in2="hardAlpha" operator="out"/>
<feColorMatrix type="matrix" values="0 0 0 0 0 0 0 0 0 0 0 0 0 0 0 0 0 0 0.25 0"/>
<feBlend mode="normal" in2="BackgroundImageFix" result="effect1_dropShadow_0_1"/>
<feBlend mode="normal" in="SourceGraphic" in2="effect1_dropShadow_0_1" result="shape"/>
</filter>
<filter id="filter13_d_0_1" x="296" y="511" width="43" height="43" filterUnits="userSpaceOnUse" color-interpolation-filters="sRGB">
<feFlood flood-opacity="0" result="BackgroundImageFix"/>
<feColorMatrix in="SourceAlpha" type="matrix" values="0 0 0 0 0 0 0 0 0 0 0 0 0 0 0 0 0 0 127 0" result="hardAlpha"/>
<feOffset dy="-3"/>
<feGaussianBlur stdDeviation="2"/>
<feComposite in2="hardAlpha" operator="out"/>
<feColorMatrix type="matrix" values="0 0 0 0 0 0 0 0 0 0 0 0 0 0 0 0 0 0 0.25 0"/>
<feBlend mode="normal" in2="BackgroundImageFix" result="effect1_dropShadow_0_1"/>
<feBlend mode="normal" in="SourceGraphic" in2="effect1_dropShadow_0_1" result="shape"/>
</filter>
<filter id="filter14_d_0_1" x="346" y="511" width="43" height="43" filterUnits="userSpaceOnUse" color-interpolation-filters="sRGB">
<feFlood flood-opacity="0" result="BackgroundImageFix"/>
<feColorMatrix in="SourceAlpha" type="matrix" values="0 0 0 0 0 0 0 0 0 0 0 0 0 0 0 0 0 0 127 0" result="hardAlpha"/>
<feOffset dy="-3"/>
<feGaussianBlur stdDeviation="2"/>
<feComposite in2="hardAlpha" operator="out"/>
<feColorMatrix type="matrix" values="0 0 0 0 0 0 0 0 0 0 0 0 0 0 0 0 0 0 0.25 0"/>
<feBlend mode="normal" in2="BackgroundImageFix" result="effect1_dropShadow_0_1"/>
<feBlend mode="normal" in="SourceGraphic" in2="effect1_dropShadow_0_1" result="shape"/>
</filter>
<filter id="filter15_d_0_1" x="396" y="511" width="43" height="43" filterUnits="userSpaceOnUse" color-interpolation-filters="sRGB">
<feFlood flood-opacity="0" result="BackgroundImageFix"/>
<feColorMatrix in="SourceAlpha" type="matrix" values="0 0 0 0 0 0 0 0 0 0 0 0 0 0 0 0 0 0 127 0" result="hardAlpha"/>
<feOffset dy="-3"/>
<feGaussianBlur stdDeviation="2"/>
<feComposite in2="hardAlpha" operator="out"/>
<feColorMatrix type="matrix" values="0 0 0 0 0 0 0 0 0 0 0 0 0 0 0 0 0 0 0.25 0"/>
<feBlend mode="normal" in2="BackgroundImageFix" result="effect1_dropShadow_0_1"/>
<feBlend mode="normal" in="SourceGraphic" in2="effect1_dropShadow_0_1" result="shape"/>
</filter>
<filter id="filter16_d_0_1" x="446" y="511" width="43" height="43" filterUnits="userSpaceOnUse" color-interpolation-filters="sRGB">
<feFlood flood-opacity="0" result="BackgroundImageFix"/>
<feColorMatrix in="SourceAlpha" type="matrix" values="0 0 0 0 0 0 0 0 0 0 0 0 0 0 0 0 0 0 127 0" result="hardAlpha"/>
<feOffset dy="-3"/>
<feGaussianBlur stdDeviation="2"/>
<feComposite in2="hardAlpha" operator="out"/>
<feColorMatrix type="matrix" values="0 0 0 0 0 0 0 0 0 0 0 0 0 0 0 0 0 0 0.25 0"/>
<feBlend mode="normal" in2="BackgroundImageFix" result="effect1_dropShadow_0_1"/>
<feBlend mode="normal" in="SourceGraphic" in2="effect1_dropShadow_0_1" result="shape"/>
</filter>
<filter id="filter17_d_0_1" x="496" y="511" width="43" height="43" filterUnits="userSpaceOnUse" color-interpolation-filters="sRGB">
<feFlood flood-opacity="0" result="BackgroundImageFix"/>
<feColorMatrix in="SourceAlpha" type="matrix" values="0 0 0 0 0 0 0 0 0 0 0 0 0 0 0 0 0 0 127 0" result="hardAlpha"/>
<feOffset dy="-3"/>
<feGaussianBlur stdDeviation="2"/>
<feComposite in2="hardAlpha" operator="out"/>
<feColorMatrix type="matrix" values="0 0 0 0 0 0 0 0 0 0 0 0 0 0 0 0 0 0 0.25 0"/>
<feBlend mode="normal" in2="BackgroundImageFix" result="effect1_dropShadow_0_1"/>
<feBlend mode="normal" in="SourceGraphic" in2="effect1_dropShadow_0_1" result="shape"/>
</filter>
</defs>
</svg>
